:SAMPLES-PER-SECOND 30
:FULLY-SPECIFIED
:DEGREES
124
root  -33.1362 38.8628 3.87188 -8.09138 -68.5691 2.25562
RightUpLeg  -19.3224 -16.2336 -4.6581
RightLeg  9.533 -16.5686 2.46278
RightFoot  3.24523 0.0158274 0.0668482
RightToes  0.00048216 0.542163 -0.142577
Spine  10.8893 -3.53325 -4.49661
Spine1  9.07739 -6.98149 10.3846
HEad  -16.1846 -4.40849 -0.0189196
LeftShoulder1  7.61484 -12.1072 -42.3697
LeftArm  3.84863 -15.9499 -37.5807
LeftForeArm  50.9274 -50.4134 -9.7076
LeftHand  -0.25398 0.0180481 5.50724
RightShoulder  4.25291 7.47888 32.7806
RightArm  -18.7911 -32.639 36.0583
RightForeArm  14.621 7.00101 2.97565
RightHand  -1.13608 2.42982 -16.9942
LeftUpLeg  22.3759 9.90737 4.91419
LeftLeg  19.0877 -4.95836 -1.58834
LeftFoot  -15.1622 -0.127882 -6.72698
LeftToes  1.06247e-005 4.65855e-005 -8.185e-006
125
root  -34.8804 38.7011 4.13724 -2.03539 -70.5915 -4.34137
RightUpLeg  -21.7012 -22.908 1.37328
RightLeg  15.9498 -7.40216 0.301912
RightFoot  7.38598 0.613676 -3.47351
RightToes  0.00048216 0.542163 -0.142577
Spine  10.5769 -3.97723 0.545035
Spine1  8.65566 -6.46716 8.86233
HEad  -15.6152 -3.33079 -1.63252
LeftShoulder1  7.79274 -12.277 -42.9293
LeftArm  3.16224 -14.086 -37.4788
LeftForeArm  49.7823 -45.3136 -7.92496
LeftHand  -0.25398 0.0180481 5.50724
RightShoulder  4.24666 7.51549 32.5968
RightArm  -20.9051 -31.2997 36.1436
RightForeArm  5.99657 8.64858 3.33153
RightHand  -1.31426 3.11073 -18.1206
LeftUpLeg  21.8295 9.3104 7.54529
LeftLeg  24.905 -2.23734 -0.758466
LeftFoot  -11.23 0.0883731 -10.551
LeftToes  1.06247e-005 4.65855e-005 -8.185e-006
126
root  -36.5618 38.6209 4.30874 4.49643 -72.7325 -11.3497
RightUpLeg  -22.8819 -24.6545 5.8945
RightLeg  21.2162 -2.02434 -1.19151
RightFoot  6.3816 1.02118 -6.30971
RightToes  0.00048216 0.542163 -0.142577
Spine  10.7879 -4.05393 3.90411
Spine1  8.01579 -6.03365 8.77558
HEad  -15.0224 -1.40722 -3.13321
LeftShoulder1  7.87153 -12.2455 -43.4815
LeftArm  3.17928 -11.6833 -37.7444
LeftForeArm  46.9298 -38.6838 -6.11544
LeftHand  -0.25398 0.0180481 5.50724
RightShoulder  4.30913 7.77655 32.2581
RightArm  -20.6903 -28.6948 35.8288
RightForeArm  1.11127 11.1296 4.14493
RightHand  -1.27006 3.0583 -17.5997
LeftUpLeg  18.3445 9.67437 9.86878
LeftLeg  34.5068 1.09753 1.21289
LeftFoot  -0.929531 0.886119 -10.1986
LeftToes  1.06247e-005 4.65855e-005 -8.185e-006
127
root  -38.0478 38.5188 4.36215 10.3911 -73.9248 -17.3102
RightUpLeg  -22.5687 -21.4361 7.21379
RightLeg  25.6445 -3.86455 -2.27432
RightFoot  1.96669 0.894314 -7.48228
RightToes  0.00048216 0.542163 -0.142577
Spine  11.0744 -4.14302 5.45229
Spine1  7.57123 -5.96099 10.1609
HEad  -14.1601 0.403588 -3.74692
LeftShoulder1  7.85216 -12.1178 -43.7419
LeftArm  5.45413 -9.70729 -38.2166
LeftForeArm  41.4508 -30.6706 -4.33348
LeftHand  -0.25398 0.0180481 5.50724
RightShoulder  4.39705 8.02079 32.211
RightArm  -18.241 -25.2658 35.4979
RightForeArm  0.98889 14.9118 4.65744
RightHand  -1.03704 2.20858 -15.9924
LeftUpLeg  11.9797 9.56255 11.1427
LeftLeg  45.7945 3.51292 4.26009
LeftFoot  11.8338 1.23975 -6.38439
LeftToes  1.06247e-005 4.65855e-005 -8.185e-006
128
root  -39.3974 38.4583 4.4211 14.7691 -74.444 -21.7619
RightUpLeg  -21.707 -20.454 8.11048
RightLeg  28.7329 -4.41272 -2.85614
RightFoot  -1.77303 0.573773 -6.97793
RightToes  0.00048216 0.542163 -0.142577
Spine  11.3105 -4.36487 6.92568
Spine1  7.38634 -5.82357 10.8964
HEad  -13.0811 1.1523 -3.48107
LeftShoulder1  7.9227 -12.2049 -43.8982
LeftArm  8.84228 -8.20788 -38.0647
LeftForeArm  36.6721 -22.6717 -3.58621
LeftHand  -0.25398 0.0180481 5.50724
RightShoulder  4.44861 8.0358 32.61
RightArm  -14.5782 -22.0445 35.536
RightForeArm  2.44994 20.9597 4.81811
RightHand  -0.85963 1.34582 -14.9438
LeftUpLeg  5.04476 8.72887 11.4555
LeftLeg  55.8779 3.99424 6.77652
LeftFoot  18.5026 0.857326 -3.57565
LeftToes  1.06247e-005 4.65855e-005 -8.185e-006
